<?xml version="1.0" encoding="UTF-8" standalone="no"?>
<!DOCTYPE svg PUBLIC "-//W3C//DTD SVG 1.1//EN" "http://www.w3.org/Graphics/SVG/1.1/DTD/svg11.dtd">
<svg width="100%" height="100%" viewBox="0 0 2297 1021" version="1.1" xmlns="http://www.w3.org/2000/svg" xmlns:xlink="http://www.w3.org/1999/xlink" xml:space="preserve" xmlns:serif="http://www.serif.com/" style="fill-rule:evenodd;clip-rule:evenodd;stroke-linejoin:round;stroke-miterlimit:1.41421;">
    <g transform="matrix(2.53406,0,0,2.53406,-613.931,-749.406)">
        <path d="M427.346,505.349C427.346,507.194 428.038,508.116 429.422,508.116C431.114,508.116 433.292,506.989 435.957,504.734L442.646,498.968C449.719,492.868 456.459,489.819 462.866,489.819C467.017,489.819 470.708,493.278 473.937,500.198C476.756,506.143 479.293,515.01 481.548,526.799C481.958,528.746 482.304,529.72 482.586,529.72C482.868,529.72 483.611,529.259 484.815,528.336C486.02,527.414 487.493,526.235 489.236,524.8C501.793,514.088 509.059,508.104 511.032,506.848C513.005,505.592 514.376,504.747 515.145,504.311C515.914,503.875 516.709,503.478 517.529,503.119C519.579,502.35 521.193,501.966 522.372,501.966C524.627,501.966 525.755,503.145 525.755,505.503C525.755,509.09 523.397,514.318 518.682,521.186C513.403,528.875 506.406,536.537 497.693,544.174C487.545,553.144 478.678,557.628 471.092,557.628C463.096,557.628 457.715,552.247 454.947,541.483C454.229,538.715 453.665,536.127 453.255,533.718L452.102,527.721C451.795,526.132 451.397,525.338 450.911,525.338C450.424,525.338 449.411,526.107 447.874,527.644L442.184,533.411C435.829,539.869 430.498,544.584 426.193,547.557C417.531,553.605 409.945,556.629 403.436,556.629C395.645,556.629 391.058,552.682 389.674,544.789C389.264,542.431 389.059,539.446 389.059,535.832C389.059,532.219 389.572,527.798 390.597,522.57C391.622,517.342 393.031,512.114 394.825,506.886C398.721,495.713 403.564,486.18 409.356,478.286L416.198,469.214C432.754,447.585 446.592,436.77 457.715,436.77C460.226,436.77 462.046,438 463.173,440.461C463.532,441.229 463.711,442.383 463.711,443.92C463.711,445.458 463.045,447.444 461.712,449.879C460.38,452.313 458.74,454.837 456.792,457.451C454.844,460.065 452.756,462.718 450.526,465.409C448.297,468.1 446.259,470.752 444.414,473.366L438.648,481.746C431.114,493.073 427.346,500.941 427.346,505.349Z" style="fill-rule:nonzero;"/>
        <path d="M579.957,466.216C578.47,467.446 576.856,468.458 575.113,469.253C573.37,470.047 571.423,470.444 569.27,470.444C567.117,470.444 565.042,470.086 563.043,469.368C561.044,468.651 559.301,467.651 557.815,466.37C554.586,463.602 552.971,460.065 552.971,455.76C552.971,449.148 558.507,444.228 569.578,440.999C573.319,439.871 576.394,439.307 578.803,439.307C581.212,439.307 583.019,439.576 584.224,440.115C585.428,440.653 586.415,441.358 587.183,442.229C588.721,443.971 589.49,445.753 589.49,447.572C589.49,449.392 589.272,451.045 588.836,452.531C588.401,454.017 587.773,455.555 586.953,457.144C586.133,458.733 585.133,460.322 583.954,461.911C582.776,463.499 581.443,464.935 579.957,466.216ZM560.582,550.863C556.687,552.862 552.894,554.463 549.204,555.668C545.514,556.872 541.887,557.475 538.325,557.475C534.763,557.475 531.073,556.616 527.254,554.899C523.436,553.182 520.04,550.888 517.067,548.018C510.455,541.611 507.15,534.487 507.15,526.645C507.15,519.418 509.302,512.089 513.608,504.657C517.554,497.942 522.577,492.304 528.676,487.743C534.776,483.181 540.439,480.9 545.667,480.9C553.15,480.9 557.148,483.002 557.661,487.205C557.815,488.486 557.892,489.972 557.892,491.664C557.892,493.355 557.494,495.29 556.7,497.468C555.905,499.647 554.88,501.825 553.625,504.003C552.369,506.182 550.985,508.309 549.473,510.385C547.961,512.46 546.513,514.344 545.129,516.035C542.464,519.264 540.337,521.596 538.748,523.032C538.748,524.774 540.055,526.568 542.669,528.413C545.129,530.156 547.218,531.027 548.935,531.027C550.652,531.027 552.676,530.617 555.008,529.797C557.341,528.977 559.749,527.875 562.235,526.491C564.721,525.107 567.258,523.518 569.847,521.725C572.435,519.931 574.985,518.085 577.496,516.189L591.566,505.195C597.152,501.146 601.688,499.121 605.174,499.121C606.558,499.121 607.621,499.621 608.364,500.621C609.108,501.62 609.479,502.786 609.479,504.119C609.479,505.451 608.813,507.284 607.48,509.616C606.148,511.948 604.315,514.523 601.983,517.342C599.651,520.161 596.922,523.108 593.795,526.184C590.669,529.259 587.286,532.283 583.647,535.256C580.008,538.229 576.228,541.06 572.307,543.751C568.386,546.442 564.478,548.813 560.582,550.863Z" style="fill-rule:nonzero;"/>
        <path d="M623.549,505.349C623.549,507.194 624.24,508.116 625.624,508.116C627.316,508.116 629.494,506.989 632.159,504.734L638.848,498.968C645.921,492.868 652.661,489.819 659.068,489.819C663.22,489.819 666.91,493.278 670.139,500.198C672.958,506.143 675.495,515.01 677.75,526.799C678.16,528.746 678.506,529.72 678.788,529.72C679.07,529.72 679.813,529.259 681.018,528.336C682.222,527.414 683.696,526.235 685.438,524.8C697.996,514.088 705.261,508.104 707.234,506.848C709.208,505.592 710.579,504.747 711.347,504.311C712.116,503.875 712.911,503.478 713.731,503.119C715.781,502.35 717.396,501.966 718.574,501.966C720.83,501.966 721.957,503.145 721.957,505.503C721.957,509.09 719.599,514.318 714.884,521.186C709.605,528.875 702.609,536.537 693.895,544.174C683.747,553.144 674.88,557.628 667.294,557.628C659.299,557.628 653.917,552.247 651.149,541.483C650.432,538.715 649.868,536.127 649.458,533.718L648.304,527.721C647.997,526.132 647.6,525.338 647.113,525.338C646.626,525.338 645.614,526.107 644.076,527.644L638.387,533.411C632.031,539.869 626.701,544.584 622.395,547.557C613.733,553.605 606.148,556.629 599.638,556.629C591.848,556.629 587.26,552.682 585.876,544.789C585.466,542.431 585.261,539.446 585.261,535.832C585.261,532.219 585.774,527.798 586.799,522.57C587.824,517.342 589.234,512.114 591.028,506.886C594.923,495.713 599.766,486.18 605.558,478.286L612.401,469.214C628.956,447.585 642.795,436.77 653.917,436.77C656.428,436.77 658.248,438 659.375,440.461C659.734,441.229 659.914,442.383 659.914,443.92C659.914,445.458 659.247,447.444 657.915,449.879C656.582,452.313 654.942,454.837 652.994,457.451C651.047,460.065 648.958,462.718 646.728,465.409C644.499,468.1 642.461,470.752 640.616,473.366L634.85,481.746C627.316,493.073 623.549,500.941 623.549,505.349Z" style="fill-rule:nonzero;"/>
        <path d="M776.159,466.216C774.672,467.446 773.058,468.458 771.315,469.253C769.573,470.047 767.625,470.444 765.472,470.444C763.32,470.444 761.244,470.086 759.245,469.368C757.246,468.651 755.503,467.651 754.017,466.37C750.788,463.602 749.173,460.065 749.173,455.76C749.173,449.148 754.709,444.228 765.78,440.999C769.521,439.871 772.597,439.307 775.006,439.307C777.415,439.307 779.221,439.576 780.426,440.115C781.63,440.653 782.617,441.358 783.386,442.229C784.923,443.971 785.692,445.753 785.692,447.572C785.692,449.392 785.474,451.045 785.039,452.531C784.603,454.017 783.975,455.555 783.155,457.144C782.335,458.733 781.336,460.322 780.157,461.911C778.978,463.499 777.645,464.935 776.159,466.216ZM756.785,550.863C752.889,552.862 749.096,554.463 745.406,555.668C741.716,556.872 738.09,557.475 734.527,557.475C730.965,557.475 727.275,556.616 723.456,554.899C719.638,553.182 716.242,550.888 713.27,548.018C706.658,541.611 703.352,534.487 703.352,526.645C703.352,519.418 705.504,512.089 709.81,504.657C713.756,497.942 718.779,492.304 724.879,487.743C730.978,483.181 736.642,480.9 741.87,480.9C749.353,480.9 753.351,483.002 753.863,487.205C754.017,488.486 754.094,489.972 754.094,491.664C754.094,493.355 753.697,495.29 752.902,497.468C752.108,499.647 751.083,501.825 749.827,504.003C748.571,506.182 747.187,508.309 745.675,510.385C744.163,512.46 742.715,514.344 741.331,516.035C738.666,519.264 736.539,521.596 734.95,523.032C734.95,524.774 736.257,526.568 738.871,528.413C741.331,530.156 743.42,531.027 745.137,531.027C746.854,531.027 748.879,530.617 751.211,529.797C753.543,528.977 755.952,527.875 758.438,526.491C760.923,525.107 763.461,523.518 766.049,521.725C768.637,519.931 771.187,518.085 773.699,516.189L787.768,505.195C793.355,501.146 797.891,499.121 801.376,499.121C802.76,499.121 803.823,499.621 804.567,500.621C805.31,501.62 805.681,502.786 805.681,504.119C805.681,505.451 805.015,507.284 803.682,509.616C802.35,511.948 800.518,514.523 798.185,517.342C795.853,520.161 793.124,523.108 789.998,526.184C786.871,529.259 783.488,532.283 779.849,535.256C776.21,538.229 772.43,541.06 768.509,543.751C764.588,546.442 760.68,548.813 756.785,550.863Z" style="fill-rule:nonzero;"/>
        <path d="M819.751,505.349C819.751,507.194 820.443,508.116 821.827,508.116C823.518,508.116 825.696,506.989 828.362,504.734L835.05,498.968C842.123,492.868 848.863,489.819 855.27,489.819C859.422,489.819 863.112,493.278 866.341,500.198C869.16,506.143 871.697,515.01 873.952,526.799C874.362,528.746 874.708,529.72 874.99,529.72C875.272,529.72 876.015,529.259 877.22,528.336C878.424,527.414 879.898,526.235 881.641,524.8C894.198,514.088 901.463,508.104 903.437,506.848C905.41,505.592 906.781,504.747 907.55,504.311C908.319,503.875 909.113,503.478 909.933,503.119C911.983,502.35 913.598,501.966 914.777,501.966C917.032,501.966 918.159,503.145 918.159,505.503C918.159,509.09 915.802,514.318 911.086,521.186C905.807,528.875 898.811,536.537 890.098,544.174C879.949,553.144 871.082,557.628 863.496,557.628C855.501,557.628 850.119,552.247 847.351,541.483C846.634,538.715 846.07,536.127 845.66,533.718L844.507,527.721C844.199,526.132 843.802,525.338 843.315,525.338C842.828,525.338 841.816,526.107 840.278,527.644L834.589,533.411C828.233,539.869 822.903,544.584 818.598,547.557C809.936,553.605 802.35,556.629 795.841,556.629C788.05,556.629 783.463,552.682 782.079,544.789C781.669,542.431 781.464,539.446 781.464,535.832C781.464,532.219 781.976,527.798 783.001,522.57C784.026,517.342 785.436,512.114 787.23,506.886C791.125,495.713 795.969,486.18 801.76,478.286L808.603,469.214C825.158,447.585 838.997,436.77 850.119,436.77C852.631,436.77 854.45,438 855.578,440.461C855.936,441.229 856.116,442.383 856.116,443.92C856.116,445.458 855.45,447.444 854.117,449.879C852.784,452.313 851.144,454.837 849.196,457.451C847.249,460.065 845.16,462.718 842.931,465.409C840.701,468.1 838.664,470.752 836.819,473.366L831.052,481.746C823.518,493.073 819.751,500.941 819.751,505.349Z" style="fill-rule:nonzero;"/>
        <path d="M972.361,466.216C970.875,467.446 969.26,468.458 967.517,469.253C965.775,470.047 963.827,470.444 961.674,470.444C959.522,470.444 957.446,470.086 955.447,469.368C953.448,468.651 951.705,467.651 950.219,466.37C946.99,463.602 945.376,460.065 945.376,455.76C945.376,449.148 950.911,444.228 961.982,440.999C965.724,439.871 968.799,439.307 971.208,439.307C973.617,439.307 975.423,439.576 976.628,440.115C977.832,440.653 978.819,441.358 979.588,442.229C981.126,443.971 981.894,445.753 981.894,447.572C981.894,449.392 981.677,451.045 981.241,452.531C980.805,454.017 980.177,455.555 979.357,457.144C978.537,458.733 977.538,460.322 976.359,461.911C975.18,463.499 973.847,464.935 972.361,466.216ZM952.987,550.863C949.091,552.862 945.299,554.463 941.608,555.668C937.918,556.872 934.292,557.475 930.73,557.475C927.167,557.475 923.477,556.616 919.659,554.899C915.84,553.182 912.445,550.888 909.472,548.018C902.86,541.611 899.554,534.487 899.554,526.645C899.554,519.418 901.707,512.089 906.012,504.657C909.959,497.942 914.982,492.304 921.081,487.743C927.18,483.181 932.844,480.9 938.072,480.9C945.555,480.9 949.553,483.002 950.065,487.205C950.219,488.486 950.296,489.972 950.296,491.664C950.296,493.355 949.899,495.29 949.104,497.468C948.31,499.647 947.285,501.825 946.029,504.003C944.773,506.182 943.389,508.309 941.877,510.385C940.365,512.46 938.917,514.344 937.534,516.035C934.868,519.264 932.741,521.596 931.152,523.032C931.152,524.774 932.459,526.568 935.073,528.413C937.534,530.156 939.622,531.027 941.339,531.027C943.056,531.027 945.081,530.617 947.413,529.797C949.745,528.977 952.154,527.875 954.64,526.491C957.126,525.107 959.663,523.518 962.251,521.725C964.839,519.931 967.389,518.085 969.901,516.189L983.97,505.195C989.557,501.146 994.093,499.121 997.578,499.121C998.962,499.121 1000.03,499.621 1000.77,500.621C1001.51,501.62 1001.88,502.786 1001.88,504.119C1001.88,505.451 1001.22,507.284 999.885,509.616C998.552,511.948 996.72,514.523 994.388,517.342C992.056,520.161 989.326,523.108 986.2,526.184C983.073,529.259 979.69,532.283 976.051,535.256C972.412,538.229 968.632,541.06 964.711,543.751C960.79,546.442 956.882,548.813 952.987,550.863Z" style="fill-rule:nonzero;"/>
    </g>
</svg>
