<?xml version="1.0" encoding="utf-8"?>
<!-- Generator: Adobe Illustrator 22.0.1, SVG Export Plug-In . SVG Version: 6.00 Build 0)  -->
<svg version="1.1" id="Layer_1" xmlns="http://www.w3.org/2000/svg" xmlns:xlink="http://www.w3.org/1999/xlink" x="0px" y="0px"
	 viewBox="0 0 2474.6 806.5" style="enable-background:new 0 0 2474.6 806.5;" xml:space="preserve">
<style type="text/css">
	.st0{fill:none;stroke:#000000;stroke-miterlimit:10;}
</style>
<title>olivia</title>
<g>
	<path class="st0" d="M1046.7,308.3c7.9,1.7,16,2.2,24,1.5c7.6,0.2,15.1-1.4,22-4.5c6.8-2.9,13-7,18.5-12c6.6-3.6,12.7-8.2,18-13.5
		c4.2-5.8,8-11.8,11.5-18c2.9-5.8,5.2-11.8,7-18c0.8-6.1,0.8-12.3,0-18.5c-0.3-7.7-3.5-15-9-20.5c-2.9-3.6-6.7-6.4-11-8
		c-6.7-2.4-13.9-3.4-21-3c-11.9,0.5-23.6,2.5-35,6c-42,12.5-63,31.5-63,56.5c-0.5,15.6,6.3,30.6,18.5,40.5
		C1033,301.8,1039.6,305.7,1046.7,308.3z"/>
	<path class="st0" d="M1744.2,308.3c7.9,1.8,16,2.3,24,1.5c7.6,0.2,15.1-1.4,22-4.5c6.7-3,13-7.1,18.5-12
		c6.4-3.8,12.2-8.3,17.5-13.5c4.4-5.6,8.2-11.7,11.5-18c3-5.8,5.5-11.8,7.5-18c0.8-6.1,0.8-12.3,0-18.5c-0.3-7.7-3.5-15-9-20.5
		c-3-3.5-6.8-6.2-11-8c-6.7-2.3-13.9-3.3-21-3c-11.9,0.4-23.6,2.5-35,6c-42,12.5-63.5,31.5-63.5,56.5c-0.5,15.6,6.3,30.6,18.5,40.5
		C1730.2,301.7,1736.9,305.6,1744.2,308.3z"/>
	<path class="st0" d="M2361.7,412.2c-26.8,5.2-51.6,18.2-70.9,37.5l-35.5,28.5l-19.5,14.5l-17.5,11c-3.8,2.4-8,4-12.5,4.5
		c-4,0-5.5-9-7-13c-1.5-4-3-9-4.5-14c-1.5-5-5-10.5-5-15.5c-6-18.3-23.8-30.1-43-28.5c-33.9,3.1-66.4,14.8-94.4,34l-24,14.5
		c-21.5,15.1-45.5,26.3-70.9,33c-10.5,0-15.5-3.5-15.5-10c0.7-7.8,4.4-15,10.5-20c35.1-29.5,75-52.6,117.9-68.4l36.5-16
		c7.8-2.6,14.8-7,20.5-13c3.8-5.7,5.6-12.6,5-19.5c0-12.5-6-18.5-19-18.5c-50.7,3-100.5,14.5-147.4,34
		c-27.9,9.2-54.4,21.6-79.6,36.5c-12.3,4.2-24,9.9-33.8,18.5l-52.5,40l-29,21c-10,6.5-19.5,13-29,18c-8.7,5.1-17.9,9.3-27.5,12.5
		c-7.3,3.1-15.1,4.8-23,5c-8.8-0.9-17.1-4.4-24-10c-10-7-15-14-15-20.5c8.1-7.9,15.8-16.2,23-25l16.5-21.5c5.5-8,11-16,15.5-24
		c4.7-8,8.7-16.3,12-25c2.7-7,4.2-14.5,4.5-22c0.3-5.7,0.3-11.3,0-17c-2-16-17-24-45.5-24c-23.9,1.4-46.7,10.5-65,26
		c-23.4,17.3-43,39.2-57.5,64.4c-0.5,0.8-0.8,1.6-1.3,2.4c-3.5,3.1-7.7,5.5-10.7,9.1l-12.5,10.5c-4.3,3.7-8.8,7-13.5,10
		c-3.6,2.3-7.7,3.7-12,4c-2.8,0.8-5.7,0.8-8.5,0c-6.9-3.4-11.5-10.3-12-18c9.7-17.9,14.7-38.1,14.5-58.5c0-27.5-13-41.5-39.5-41.5
		c-16.5,1.8-32,9-44,20.5c-7.6,6.5-14.6,13.7-21,21.5c-6.1,7.5-11.8,15.3-17,23.5c-4.3,7-7.9,14.4-11,22c-2.6,5.7-4.1,11.8-4.5,18
		c-0.5,4.5-0.5,9,0,13.5l-26,23.5c-29,26.5-50.5,40-57,40s-13-5.5-19-16c-3.1-4.8-5.5-10-7-15.5c-2.2-7.6-3.3-15.5-3-23.5
		c-0.1-9.2,2-18.2,6-26.5c5.8-8.9,12.7-17.1,20.5-24.5l13.5-15c5.7-6.3,11.1-13,16-20c6.1-7.1,9.4-16.1,9.5-25.5
		c0-7.5-6.5-14-19.5-19c-6-2.1-12.2-3.6-18.5-4.5c-8.6-0.6-17.3-0.6-26,0c-10.8-0.8-21.7,0.6-32,4c-23.3,10.1-42.6,27.7-55,50
		c-9.5,14.6-16.7,30.4-21.5,46.9l-41.4,32.5l-31.5,19c-9.3,6.5-19,12.5-29,18c-8.7,5.1-17.9,9.3-27.5,12.5c-7.3,3.1-15.1,4.8-23,5
		c-8.8-1-17.1-4.4-24-10c-10-7-15-14-15-20.5c8.9-7.7,17.3-16.1,25-25l16.5-21.5l16-24c4.3-8.1,8.2-16.4,11.5-25
		c2.7-7,4.2-14.5,4.5-22c0.6-5.6,0.6-11.3,0-17c-2-16-17-24-45.5-24c-23.9,1.4-46.7,10.5-64.9,26c-23.3,17.3-42.6,39.2-57,64.4
		c-0.4,0.7-0.7,1.4-1.1,2.1c-4.1,2.7-8.7,4.6-12.4,7.9l-50,40.5c-23.8,21.1-52.2,36.4-82.9,44.5c-11.9-0.9-22.7-7.4-29-17.5
		c-8.3-11.1-12.8-24.6-13-38.5c-0.8-26.5,5-52.8,17-76.4c38.6-30.5,72.3-66.8,99.9-107.4c10.8-15.7,20.1-32.4,27.5-50
		c5.4-12.8,8.5-26.5,9-40.5c0-11.3-5.1-22-14-29c-4.1-3.1-8.7-5.6-13.5-7.5c-5.1-2.1-10.5-3.1-16-3c-8.7,1.1-17,4-24.5,8.5
		c-43.3,25.3-80.9,59.4-110.4,99.9c-43.6,46.9-72.4,104.9-85.4,167.1l-13,7.2c-14.8,10.6-31.9,17.3-50,19.5c-18,0-27-5.5-27-16
		c-0.1-3.1,0.4-6.1,1.5-9c0.6-4.3,0.6-8.7,0-13c0.7-17.6-6-34.6-18.5-47c-6.6-6.6-14.2-12.1-22.5-16.5c-11.9-5.4-24.9-8.1-38-8
		c-36,0.8-71.8,7-105.9,18.5c-21.2,6.9-41.9,15.3-62,25c-25.8,12.4-49.8,28.2-71.4,47c-29.3,20.7-47.7,53.6-50,89.4
		c0.5,23.2,8.6,45.7,23,63.9c17.6,24.9,46.4,39.5,76.9,39c39.3-2.2,77.6-13.5,111.9-33c34.2-15.5,65.2-37.2,91.4-64l11.5,7
		c15.4,7.9,32.6,11.7,50,11c23.4-1.2,46.1-8.8,65.4-22c7.7-4.9,14.7-10.7,21.7-16.6c3.9,26.2,12.8,51.5,27.2,74
		c17.2,25.9,46.4,41.3,77.4,41c56.1-4.8,108.9-28.4,149.9-66.9c9.5-7.5,18.3-15.9,27.3-23.9c5.4,22,17.3,42.1,34.6,57.4
		c11.4,10.8,24.6,19.6,39,26c13,6.5,27.4,9.9,42,10c14.1,0.1,28.2-2.3,41.5-7c15-4.8,29.6-11,43.5-18.5c15-8,29.5-16.9,43.5-26.5
		c15-10.5,29.5-21,43-32.5c5.1-4.1,9.4-8.4,14.2-12.6c6.2,32.3,24.5,61.6,52.7,80.5c19,9.5,40.2,14,61.5,13
		c29.7-6.3,57.8-18.7,82.4-36.5c27.6-17.2,53.7-36.8,77.9-58.5c15,9.7,32.2,15.3,50,16.5c13.6,0.1,27.3-1.5,40.5-5
		c10.6-2.5,20.7-6.4,30.3-11.4c4.7,24,16.9,46.1,35.6,62.4c11.1,10.9,24.2,19.7,38.5,26c13.2,6.4,27.7,9.8,42.5,10
		c14.1,0,28.1-2.3,41.5-7c14.9-4.8,29.3-11,43-18.5c14.7-8,28.8-16.8,42.5-26.5c7.5-5.3,14.4-10.9,21.5-16.3
		c4.5,12.9,11.3,24.9,20.5,35.2c17.4,19.7,42.6,30.7,68.9,30c34.4-4.5,67.3-16.6,96.4-35.5l36-20.5l62.5-38l7,25
		c3.7,17.3,12,33.4,24,46.5c9.5,10,32,10.5,59.5,0c54.1-23,102.7-57,142.9-99.9l16.5-17c20.3-18.6,33.8-43.3,38.5-70.4
		C2371.2,417.7,2367.7,412.2,2361.7,412.2z M353.3,482.7c-18.2,14.9-38.4,27.2-60,36.5c-9.2,4-18.7,7.2-28.5,9.5
		c-9.6,2.9-20,1.5-28.5-4c-4.3-4.3-6.4-10.4-5.5-16.5c0.3-5.6,2.6-10.9,6.5-15c18.8-20.5,41.1-37.4,65.9-50
		c19.1-12.2,40.9-19.7,63.5-22c-11,11.3-17.6,26.2-18.5,42C348.1,470,349.9,476.7,353.3,482.7z"/>
</g>
</svg>
